<mxfile host="app.diagrams.net" modified="2024-02-07T05:17:27.071Z" agent="Mozilla/5.0 (X11; Ubuntu; Linux x86_64; rv:108.0) Gecko/20100101 Firefox/108.0" version="23.1.1" etag="HjGr3jJD8luVto-AQdKu" type="github">
  <diagram name="Page-1" id="9SM066eeAfNVaIxySLS-">
    <mxGraphModel>
      <root>
        <mxCell id="0" />
        <mxCell id="1" parent="0" />
      </root>
    </mxGraphModel>
  </diagram>
</mxfile>
